<svg width="36" height="36" viewBox="0 0 36 36" fill="none" xmlns="http://www.w3.org/2000/svg">
<rect width="36" height="36" rx="18" fill="#85CBE2"/>
<g clip-path="url(#clip0_225_6596)">
<path d="M27.6617 11.9685L26.3295 10.9601C26.1234 10.7996 25.8697 10.7124 25.6084 10.7124C25.3472 10.7124 25.0934 10.7996 24.8873 10.9601L13.1112 20.4813C12.3923 20.1015 11.5595 19.9973 10.7692 20.1882C9.97896 20.3791 9.28558 20.852 8.81932 21.518C8.35306 22.1841 8.14601 22.9974 8.23706 23.8053C8.32811 24.6132 8.711 25.36 9.3138 25.9056C9.9166 26.4511 10.6978 26.7578 11.5108 26.768C12.3237 26.7782 13.1124 26.4913 13.7288 25.9611C14.3451 25.4309 14.7466 24.6939 14.858 23.8885C14.9693 23.0832 14.7828 22.2649 14.3334 21.5874L16.7167 19.6807L24.8873 26.2624C25.0934 26.4229 25.3472 26.5101 25.6084 26.5101C25.8697 26.5101 26.1234 26.4229 26.3295 26.2624L27.6617 25.2601L19.7967 18.6113L27.6617 11.9685ZM11.5529 25.1807C11.2072 25.1807 10.8693 25.0782 10.5818 24.8862C10.2944 24.6941 10.0704 24.4211 9.93811 24.1018C9.80583 23.7824 9.77122 23.431 9.83866 23.092C9.90609 22.7529 10.0726 22.4415 10.317 22.1971C10.5614 21.9526 10.8728 21.7862 11.2119 21.7187C11.5509 21.6513 11.9023 21.6859 12.2217 21.8182C12.5411 21.9505 12.814 22.1745 13.0061 22.4619C13.1981 22.7493 13.3006 23.0872 13.3006 23.4329C13.299 23.896 13.1144 24.3396 12.7869 24.667C12.4595 24.9944 12.0159 25.1791 11.5529 25.1807Z" fill="white"/>
<path d="M15.739 16.3132L14.3334 15.1765C14.7828 14.499 14.9693 13.6807 14.858 12.8753C14.7466 12.07 14.3451 11.333 13.7288 10.8028C13.1124 10.2726 12.3237 9.98565 11.5108 9.99587C10.6978 10.0061 9.9166 10.3128 9.3138 10.8583C8.711 11.4038 8.32811 12.1507 8.23706 12.9586C8.14601 13.7665 8.35306 14.5798 8.81932 15.2458C9.28558 15.9119 9.97896 16.3847 10.7692 16.5756C11.5595 16.7666 12.3923 16.6624 13.1112 16.2826L14.4312 17.3887L15.739 16.3132ZM11.5529 15.091C11.2072 15.091 10.8693 14.9885 10.5818 14.7964C10.2944 14.6044 10.0704 14.3314 9.93811 14.012C9.80583 13.6927 9.77122 13.3412 9.83866 13.0022C9.90609 12.6632 10.0726 12.3517 10.317 12.1073C10.5614 11.8629 10.8728 11.6964 11.2119 11.629C11.5509 11.5615 11.9023 11.5962 12.2217 11.7284C12.5411 11.8607 12.814 12.0847 13.0061 12.3722C13.1981 12.6596 13.3006 12.9975 13.3006 13.3432C13.299 13.8057 13.1142 14.2486 12.7866 14.5751C12.459 14.9016 12.0153 15.0849 11.5529 15.0848V15.091Z" fill="white"/>
</g>
<defs>
<clipPath id="clip0_225_6596">
<rect width="22" height="22" fill="white" transform="translate(7 7)"/>
</clipPath>
</defs>
</svg>
