<svg width="36" height="36" viewBox="0 0 36 36" fill="none" xmlns="http://www.w3.org/2000/svg">
<rect width="36" height="36" rx="18" fill="#A267AC"/>
<path d="M28 14C27.9999 13.8185 27.9505 13.6405 27.857 13.485L25.148 8.97C24.9695 8.67484 24.7181 8.43057 24.4179 8.26069C24.1178 8.09081 23.7789 8.00104 23.434 8H12.566C11.868 8 11.211 8.372 10.852 8.971L8.143 13.485C8.04949 13.6405 8.00006 13.8185 8 14C8 15.005 8.386 15.914 9 16.618V26C9 26.2652 9.10536 26.5196 9.29289 26.7071C9.48043 26.8946 9.73478 27 10 27H18C18.2652 27 18.5196 26.8946 18.7071 26.7071C18.8946 26.5196 19 26.2652 19 26V21H23V26C23 26.2652 23.1054 26.5196 23.2929 26.7071C23.4804 26.8946 23.7348 27 24 27H26C26.2652 27 26.5196 26.8946 26.7071 26.7071C26.8946 26.5196 27 26.2652 27 26V16.618C27.614 15.914 28 15.005 28 14ZM25.984 14.251C25.9229 14.7341 25.6876 15.1783 25.3224 15.5003C24.9571 15.8223 24.4869 16 24 16C22.897 16 22 15.103 22 14C22 13.932 21.975 13.872 21.961 13.808L21.981 13.804L21.22 10H23.434L25.984 14.251ZM16.007 14.065L16.819 10H19.18L19.993 14.065C19.958 15.138 19.08 16 18 16C16.92 16 16.042 15.138 16.007 14.065ZM12.566 10H14.78L14.02 13.804L14.04 13.808C14.025 13.872 14 13.932 14 14C14 15.103 13.103 16 12 16C11.5131 16 11.0429 15.8223 10.6776 15.5003C10.3124 15.1783 10.0771 14.7341 10.016 14.251L12.566 10ZM16 22H12V19H16V22Z" fill="white"/>
</svg>
