<svg width="36" height="36" viewBox="0 0 36 36" fill="none" xmlns="http://www.w3.org/2000/svg">
<rect width="36" height="36" rx="18" fill="#FF7B72"/>
<path d="M10.6949 21.3333H25.3065M10.4598 19.1111H25.5415M12.1479 12.4444H23.8521M12.1479 12.4444C11.3163 12.4444 10.9011 12.4444 10.5945 12.5778C10.325 12.696 10.112 12.8838 9.98968 13.1111C9.85084 13.37 9.88521 13.7044 9.95669 14.3733L11.0564 24.7478C11.1788 25.8944 11.2393 26.47 11.5541 26.9033C11.832 27.2858 12.2452 27.5923 12.7404 27.7833C13.3041 28 14.0148 28 15.4403 28H20.561C21.9852 28 22.6973 28 23.2596 27.7833C23.7548 27.5923 24.168 27.2858 24.4459 26.9033C24.7621 26.47 24.8226 25.8956 24.9436 24.7478L26.0433 14.3722C26.1148 13.7033 26.1505 13.37 26.0117 13.1122C25.8893 12.8849 25.6764 12.6971 25.4068 12.5789C25.1003 12.4444 24.6824 12.4444 23.8521 12.4444M12.1479 12.4444H10.7829C9.54566 12.4444 8.92705 12.4444 8.56826 12.2356C8.41116 12.1441 8.27975 12.0268 8.18262 11.8914C8.08549 11.7561 8.02484 11.6056 8.00463 11.45C7.95789 11.0944 8.26582 10.6589 8.88031 9.79C9.33946 9.14 9.56903 8.81444 9.89208 8.57778C10.1804 8.36602 10.521 8.2062 10.8915 8.10889C11.3039 8 11.7685 8 12.6937 8H23.3063C24.2328 8 24.6947 8 25.1099 8.10889C25.4811 8.20556 25.8206 8.36556 26.1079 8.57778C26.431 8.81444 26.6605 9.13889 27.1197 9.78889C27.7342 10.6578 28.0421 11.0933 27.9954 11.45C27.9752 11.6056 27.9145 11.7561 27.8174 11.8914C27.7202 12.0268 27.5888 12.1441 27.4317 12.2356C27.0757 12.4444 26.4543 12.4444 25.2199 12.4444H23.8521" stroke="white" stroke-width="2" stroke-linecap="round" stroke-linejoin="round"/>
</svg>
