<svg width="36" height="36" viewBox="0 0 36 36" fill="none" xmlns="http://www.w3.org/2000/svg">
<rect width="36" height="36" rx="18" fill="#6A7684"/>
<path d="M10.4374 10.8329C10.2187 10.1955 9.50781 9.85404 8.85554 10.0627C8.20327 10.2714 7.84784 10.9657 8.06266 11.5993L10.0156 17.2865H9.25003C8.5587 17.2865 8.00016 17.8291 8.00016 18.5006C8.00016 19.1722 8.5587 19.7147 9.25003 19.7147H10.8475L13.0621 26.1683C13.2379 26.6805 13.7417 27.0182 14.2963 26.9992C14.851 26.9803 15.3275 26.6047 15.4603 26.0811L17.1007 19.7147H18.8974L20.5378 26.0811C20.6706 26.6047 21.1471 26.9803 21.7018 26.9992C22.2564 27.0182 22.7602 26.6805 22.936 26.1683L25.1506 19.7147H26.7481C27.4394 19.7147 27.9979 19.1722 27.9979 18.5006C27.9979 17.8291 27.4394 17.2865 26.7481 17.2865H25.9825L27.9354 11.5993C28.1542 10.9619 27.7987 10.2752 27.1465 10.0627C26.4942 9.85024 25.7833 10.1955 25.5646 10.8291L23.3461 17.2865H20.8464L19.2099 10.9202C19.0732 10.3814 18.5732 10.002 17.9991 10.002C17.4249 10.002 16.925 10.3814 16.7882 10.9202L15.1478 17.2865H12.6481L10.4374 10.8329ZM13.4839 19.7147H14.5229L14.0776 21.4448L13.4839 19.7147ZM17.7256 17.2865L17.9991 16.2204L18.2725 17.2865H17.7256ZM21.4752 19.7147H22.5142L21.9205 21.4448L21.4752 19.7147Z" fill="white"/>
</svg>
