<svg width="36" height="36" viewBox="0 0 36 36" fill="none" xmlns="http://www.w3.org/2000/svg">
<rect width="36" height="36" rx="18" fill="#FFD12D"/>
<path d="M12 28V18.85C11.1 18.6167 10.375 18.1417 9.825 17.425C9.275 16.7083 9 15.9 9 15V8H11V14H12V8H14V14H15V8H17V15C17 15.9 16.725 16.7083 16.175 17.425C15.625 18.1417 14.9 18.6167 14 18.85V28H12ZM22 28V18.475C21.1 18.175 20.375 17.546 19.825 16.588C19.275 15.63 19 14.5423 19 13.325C19 11.8417 19.3917 10.5833 20.175 9.55C20.9583 8.51667 21.9 8 23 8C24.1 8 25.0417 8.52067 25.825 9.562C26.6083 10.6033 27 11.866 27 13.35C27 14.5667 26.725 15.65 26.175 16.6C25.625 17.55 24.9 18.175 24 18.475V28H22Z" fill="white"/>
</svg>
