<svg width="36" height="36" viewBox="0 0 36 36" fill="none" xmlns="http://www.w3.org/2000/svg">
<rect width="36" height="36" rx="18" fill="#EE4266"/>
<path d="M18 19C16.6739 19 15.4021 18.4732 14.4645 17.5355C13.5268 16.5979 13 15.3261 13 14H15C15 14.7956 15.3161 15.5587 15.8787 16.1213C16.4413 16.6839 17.2044 17 18 17C18.7956 17 19.5587 16.6839 20.1213 16.1213C20.6839 15.5587 21 14.7956 21 14H23C23 15.3261 22.4732 16.5979 21.5355 17.5355C20.5979 18.4732 19.3261 19 18 19ZM18 9C18.7956 9 19.5587 9.31607 20.1213 9.87868C20.6839 10.4413 21 11.2044 21 12H15C15 11.2044 15.3161 10.4413 15.8787 9.87868C16.4413 9.31607 17.2044 9 18 9ZM25 12H23C23 11.3434 22.8707 10.6932 22.6194 10.0866C22.3681 9.47995 21.9998 8.92876 21.5355 8.46447C21.0712 8.00017 20.52 7.63188 19.9134 7.3806C19.3068 7.12933 18.6566 7 18 7C16.6739 7 15.4021 7.52678 14.4645 8.46447C13.5268 9.40215 13 10.6739 13 12H11C9.89 12 9 12.89 9 14V26C9 26.5304 9.21071 27.0391 9.58579 27.4142C9.96086 27.7893 10.4696 28 11 28H25C25.5304 28 26.0391 27.7893 26.4142 27.4142C26.7893 27.0391 27 26.5304 27 26V14C27 13.4696 26.7893 12.9609 26.4142 12.5858C26.0391 12.2107 25.5304 12 25 12Z" fill="white"/>
</svg>
